<?xml version="1.0" encoding="utf-8"?>
<!-- Generator: Adobe Illustrator 22.1.0, SVG Export Plug-In . SVG Version: 6.00 Build 0)  -->
<svg version="1.0" id="レイヤー_1" xmlns="http://www.w3.org/2000/svg" xmlns:xlink="http://www.w3.org/1999/xlink" x="0px"
	 y="0px" viewBox="0 0 566.9 566.9" enable-background="new 0 0 566.9 566.9" xml:space="preserve">
<g>
	<path fill="#FFFFFF" d="M283.5,351.6c-38,0-73.8-14.8-100.7-41.7C155.8,283,141,247.2,141,209.2s14.8-73.8,41.7-100.7
		c26.9-26.9,62.7-41.7,100.7-41.7s73.8,14.8,100.7,41.7c26.9,26.9,41.7,62.7,41.7,100.7s-14.8,73.8-41.7,100.7
		C357.3,336.8,321.5,351.6,283.5,351.6 M283.5,94.6c-63.2,0-114.6,51.4-114.6,114.6c0,63.2,51.4,114.6,114.6,114.6
		c63.2,0,114.6-51.4,114.6-114.6C398,146,346.6,94.6,283.5,94.6"/>
	<polygon fill="#FFFFFF" points="255.9,190.9 255.9,184.6 362.9,184.6 362.9,135.2 204.4,135.2 204.4,231 304.4,231 304.4,236.1 
		204.4,236.1 204.4,286 362.9,286 362.9,190.9 	"/>
	<path fill="#FFFFFF" d="M136.7,407.4v-3.1h22.6v-11.2H134c-5.2,0-9.5,4.2-9.5,9.5v13.5h19.8v2.7h-19.8v10.4h25.2
		c5.2,0,9.5-4.2,9.5-9.5v-12.4H136.7z"/>
	<path fill="#FFFFFF" d="M212.8,407.4v7.8h3.1v3.1h-3.1c-3.8,0-7-3.1-7-7c0-3.8,3.1-7,7-7h17.3v-11.2h-25.2c-5.2,0-9.5,4.2-9.5,9.5
		v26.6h25.2c5.2,0,9.5-4.2,9.5-9.5v-12.4H212.8z"/>
	<path fill="#FFFFFF" d="M338,393.2c-5.2,0-9.5,4.2-9.5,9.5v26.6h25.2c5.2,0,9.5-4.2,9.5-9.5v-26.6H338z M345.8,418.1
		c-3.8,0-6.9-3.1-6.9-6.9c0-3.8,3.1-6.9,6.9-6.9c3.8,0,6.9,3.1,6.9,6.9C352.7,415,349.6,418.1,345.8,418.1"/>
	<polygon fill="#FFFFFF" points="431.3,393.2 437,415.4 442.4,393.2 	"/>
	<path fill="#FFFFFF" d="M410,393.2l-15,0l6.4,26.6c1.3,4.7,4,9.1,8.9,9.4l0,0l0,0h3.5l2.6-10.4l0,0L410,393.2z"/>
	<path fill="#FFFFFF" d="M413.1,393.2l9.2,36.1h4.1c4.6,0,7.3-3.5,8.9-7.8l-7.2-28.3H413.1z"/>
	<path fill="#FFFFFF" d="M278.4,418.1v-24.9h-2.6c-5.2,0-9.5,4.2-9.5,9.5v26.6h1.3h10.7h8.4c5.2,0,9.5-4.2,9.5-9.5v-1.7H278.4z"/>
	<path fill="#FFFFFF" d="M265.5,476.3c-0.1-1-0.2-2.1-0.4-3.1c-0.1-0.9-0.5-1.7-1.3-2.3c-1.1-0.8-2.6-1.4-4-1.5
		c-1.5-0.1-3-0.3-4.5-0.3c-0.8,0-1.2-0.3-1.4-1.2c-0.2-0.8-0.4-1.6-0.7-2.4c-1.2-2.4-3.6-2.9-5.5-1c-1.1,1.1-2,2.2-2.9,3.5
		c-0.5,0.8-1.1,1.1-2,1.2c-3,0.2-6,0.9-9.1,0.7c-1.7-0.1-2.6,0.5-2.7,1.8c-0.1,0.7-0.1,1.5,0.2,2.2c0.4,1.2,1.1,2.3,1.5,3.5
		c0.3,0.9,1,1.2,1.8,1.1c0.7-0.1,1.5-0.3,2.1-0.7c2.6-1.5,5.4-2,8.3-2c0.4,0,1.1,0.3,1.1,0.5c0,0.2-0.4,0.8-0.8,0.9
		c-0.2,0.1-0.7,0.2-1,0.4c-3.5,1.5-5.4,4.2-5.9,8c-0.2,1.9,0.6,3,2.6,3.3c1.7,0.3,3.6,0.6,4.7,1.9c0.4,0.4,0.6,1.2,0.7,1.7
		c0.3,1.9-0.2,4.7-1.1,6.9c0.8-0.2,1.2-0.6,1.4-0.7c1.5-0.9,2.8-1.9,4.2-2.8c1.2-0.8,1.9-2.5,1.8-4c-0.4-4.8,0.5-9.5,0.8-14.2
		c0.1-2,0.5-2.4,2.5-2.3c2.9,0.1,5.7,0.3,8.3,1.7C265.2,477.8,265.6,477.3,265.5,476.3 M246.5,483.5c-0.2,2.2-1,2.6-3,1.6
		c-1.2-0.6-1.4-1.1-0.8-2.2c0.3-0.5,0.6-1.1,1.1-1.4c0.1-0.1,0.2-0.1,0.3-0.2c0.4-0.2,1-0.5,1.4-0.4c0.1,0,0.2,0,0.3,0
		c0.5,0.2,0.7,1.1,0.7,1.2C246.5,483,246.6,483.2,246.5,483.5"/>
	<path fill="#FFFFFF" d="M193.1,491.5c-1.6-2-3.7-3-6.2-3.3c-2.5-0.3-4.8,0.3-7,1.6c-0.8,0.4-1.7,0.9-2.6,0.8c-0.4,0-0.8,0-1.2-0.1
		c-0.9-0.2-1.7-0.7-2.1-1.2c0,0,0,0,0,0c-0.1-0.1-0.2-0.3-0.2-0.5c0-0.2,1.1-0.5,1.8-0.6c0.7-0.1,1.4-0.2,2.1-0.2
		c1.7-0.2,3.5-0.4,5.2-0.6c1.9-0.3,3.6-1.2,4.9-2.7c1.9-2.3,2.3-3.7,0.3-6.5c-1.8-2.5-4.4-3.6-7.5-3.7c-0.8,0-1.6,0.3-2.3-0.4
		c0.2-0.2,0.2-0.4,0.3-0.5c1.5-0.8,3-1.5,4.5-2.3c1.1-0.6,2.3-1.3,3.2-2.1c1.5-1.4,1.2-2.9-0.6-3.7c-0.3-0.1-0.6-0.2-0.9-0.2
		c-1.6-0.2-3.2-0.3-4.8-0.4c-2.3-0.1-4.6,0-6.8-0.3c-2.4-0.3-4.9-0.3-6.5,1.9c-0.7,1-1.3,1.8-1.9,2.8c-0.8,1.4,0,2.9,1.6,3.3
		c0.6,0.1,1.2,0.2,1.8,0.1c1.6-0.2,3.1-0.4,4.6-0.7c0,0.1,0.1,0.2,0.1,0.2c-0.6,0.4-1.1,0.7-1.7,1.1c-2.6,1.9-5.2,3.7-7.7,5.6
		c-0.9,0.7-1.6,1.6-2.2,2.6c-0.2,0.3-0.2,1,0,1.2c0.3,0.3,1,0.5,1.4,0.4c0.8-0.2,1.5-0.6,2.2-1c2-1.1,3.8-2.4,5.9-3.5
		c2.2-1.1,4.5-2,6.9-2c2.6,0,3.9,1.9,3.1,4.3c-0.1,0.2-0.6,0.4-0.8,0.4c-0.6-0.2-1.2-0.6-1.8-0.9c-2.8-1.3-7-0.7-9.4,2
		c-1.1,1.6-0.9,2.9,0.8,4c0.3,0.1,0.5,0.5,0.7,0.7c-0.3,0.2-0.5,0.6-0.8,0.7c-1,0.4-2,0.6-3,1c-3,1-5.5,2.8-7.3,5.4
		c-0.3,0.6-0.3,1.6,0.2,2.1c1.7,1.7,4.1,1.7,5.9,0c0.8-0.8,1.5-1.7,2.3-2.5c0.7-0.7,1.4-1.4,2.2-1.9c0.7-0.5,1.5-0.4,2,0.3
		c0.6,0.8,1.2,1.6,1.7,2.4c0.8,1.2,1.8,2.2,3.2,2.7c2.3,0.9,3.2,0.5,4.2-1.8c0.5-1.3,0.9-2.7,1.6-4c0.3-0.6,1.3-1.1,2.1-0.4
		c0.9,0.6,1.4,1.6,2.2,2.3c0.6,0.6,1,1.3,1.7,1.8c1.1,0.9,2.8,1.9,3.9,2c0.5,0.1,1,0.1,1.4-0.7c0.4-0.8,0.4-1.6,0.4-2.4
		C194,493.2,193.8,492.3,193.1,491.5 M172.1,483.7c0.1-0.6,1-1,2-0.8c1,0.2,1.7,0.9,1.5,1.5c-0.1,0.6-1,1-2,0.8
		C172.7,485,172,484.3,172.1,483.7"/>
	<path fill="#FFFFFF" d="M407.7,483.5c-0.5-0.8-1.1-1.6-1.8-2.3c-1.6-1.3-3.2-2.5-4.8-3.8c-1.1-0.9-1.1-1.1,0-1.9
		c1.6-1.2,3.2-2.3,4.6-3.6c1.3-1.2,1.2-2.1-0.4-2.9c-0.5-0.3-1.1-0.4-1.7-0.4c-1.7-0.1-3.5-0.1-5.2-0.1c-2.1,0.1-4.2,0.2-6.1-1.2
		c-0.6-0.5-1.3-0.5-1.8,0.2c-1.2,1.6-2.6,3-2.9,5.1c-0.6-1.1-1.6-1.7-2.8-1.8c-1.8-0.2-3.6-0.6-5.7-0.9c0.5-0.5,0.8-0.7,0.9-0.8
		c0.1-0.1,1.7-1.9,2.1-3c0.3-1.1-0.2-2.3-1.1-2.4c-1.9-0.4-3.8-1.1-5.8-0.6c-0.8,0.3-1.1,0.7-0.7,1.7c0.4,0.8,1,1.5,1.4,2.3
		c0.3,0.5,0.5,1.1,0.5,1.7c0.1,0.7-0.3,1.2-1.1,1.2c-1-0.1-1.9-0.3-2.9-0.5c-0.5-0.1-1.4-0.1-1.6-0.1c-1.5,0.2-2.3,1.9-2.4,3.6
		c-0.1,1.5,0.1,3,1,4.4c0.4,0.7,0.9,1.5,0.9,2.3c0.2,2.3,0.3,4.5,0.2,6.8c0,1.4-0.2,2.8-1.2,4c-0.9,1.2-1.5,2.8-1.3,4.5
		c0.2,1.8,1.3,2.5,3,1.9c2.2-0.8,4.2-2.2,6.1-3.5c1.1-0.8,2-1.6,2.6-2.8c0.3-0.7,0.7-1.3,1.1-2c0.4-0.7,1-1,1.7-0.3
		c0.2,0.2,0.3,0.3,0.5,0.5c1.2,1.3,2.6,1.3,3.3,0.5c1-0.9,1.1-3.2,0.6-4.4c-0.6-1.3-1.6-2-2.9-2.3c-0.5-0.1-1.1-0.2-1.9-0.4
		c1-0.7,2-1.3,2.4-1.5c1.5-0.8,2.4-2.4,2.8-4.1c0.1-0.3,0.1-0.6,0.2-0.9c0.2-0.5,0.8-0.6,1.1-0.1c0.6,0.9,1.3,1.8,1.9,2.8
		c0.3,0.5,0.5,1.1,0.5,1.7c0,2.1,0,4.2-0.1,6.4c-0.1,3.5-0.4,7-0.4,10.4c0,0.6,0,1,0.1,1.4c0.1,3,1,2.1,2.2,1.3
		c1.7-1.2,3.1-2.7,3.3-4.9c0.2-2.1,0.2-4.2,0.3-6.4c0.1-1.5,0.2-1.5,1.6-1.1c2.3,0.8,4.7,1.3,7.2,1
		C407.7,488,408.9,485.8,407.7,483.5 M377.9,486.4c-0.1,0.9-2.5,2.2-3.4,2c-0.3-0.1-0.6-0.5-0.6-0.8c0.1-1.1,0.3-2.1,0.5-3.2
		c0.1-0.4,0.3-0.8,0.6-1c1.6-0.7,3.2-1.4,5.3-0.6C378.5,483.6,378.2,484.7,377.9,486.4 M381.3,479.9c-0.8,0.2-3.3,0.8-5,1.1
		c-0.3,0.1-0.7,0.1-0.9,0c-0.3-0.2-0.7-0.4-0.8-0.9c0-0.4,0.2-1.1,0.7-1.2c0.4,0,6.7-1.2,7.1-0.7
		C382.7,478.8,381.9,479.8,381.3,479.9 M382.8,476.1c-0.1,0.1-0.3,0.2-0.5,0.2c-2.5,0.2-7.2,0.7-7.5,0.6c-0.3-0.1-0.4-0.5-0.4-0.7
		c0-1.2,5.2-1.9,7.6-2.4c0.6-0.1,1.4-0.4,1.5,0.4C383.7,474.8,383.3,475.7,382.8,476.1 M393.9,475.3c-0.1-0.2,0.3-0.6,0.5-0.6
		c0.4-0.1,3-1,3.6-0.6c0.8,1-1.2,2.7-1.8,3.9C395.4,477,394.6,476.1,393.9,475.3 M397,484.9c-0.5,0.2-0.9-0.2-1-0.7
		c-0.1-1.9,0-3.4,0.3-5.8c1.7,1.6,2.9,2.5,4.3,3.8c0.8,0.8,0.7,1.2-0.4,1.6C399.1,484.2,398.1,484.6,397,484.9"/>
	<path fill="#FFFFFF" d="M328.9,488.7c-0.6-0.6-1.3-0.1-1.9,0.4c-0.1,0-0.1,0.1-0.2,0.1c-0.4,0.3-0.7,0.5-1.1,0.7
		c-1.2,0.6-2.5,1-3.6,1.1l-0.3,0c-1.3,0.1-2.7,0.2-4,0c-1.1-0.2-2-0.6-3.2-1.4c-1.6-1-1.6-2.5-1.5-3.1c0.8-5,1.8-10.8,3.4-15.9
		c0.4-1.4,0.1-2.6-0.9-3.8c-1.4-1.6-3.1-2.2-5.2-1.8c-2.8,0.6-4.3,2.8-5.6,4.7c-0.3,0.4-0.4,0.6-0.3,0.8c0.1,0.2,0.3,0.4,0.8,0.6
		c1.1,0.5,1.2,1.4,1.1,2.4c0,2.9-0.1,5.8-0.1,8.6c0,1.1,0,2.1,0,3.2c0,1,0,3.3,0.5,4.7c1.5,3.9,6.3,7,11.1,7c0.1,0,0.2,0,0.2,0
		c2.5,0,4.9-0.6,7.3-1.7c1.5-0.7,3.5-2,3.9-4.5C329.4,490.1,329.3,489.1,328.9,488.7"/>
	<path fill="#FFFFFF" d="M325.3,464.5c0.9,0,2,0.7,2.5,1.8c0.4,1,0.6,1.5-0.5,2.8c-0.2,0.2-0.4,0.5-0.6,0.6
		c-0.7,0.6-1.3,0.7-1.9-0.1c-0.7-1-1.4-2-1.9-3c-0.6-1.2,0-1.9,1.4-2C324.5,464.5,325,464.5,325.3,464.5"/>
	<path fill="#FFFFFF" d="M333.5,465.3c0,1.2-0.6,2.6-1.6,3.5c-1,0.9-1.3,0.3-1.5-0.3c-0.4-1.3-0.8-2.6-1-3.9
		c-0.2-1.4,1.2-2.4,2.5-1.8C332.9,463.3,333.5,464.4,333.5,465.3"/>
</g>
</svg>
