<?xml version="1.0" encoding="utf-8"?>
<!-- Generator: Adobe Illustrator 24.2.0, SVG Export Plug-In . SVG Version: 6.00 Build 0)  -->
<svg version="1.1" id="レイヤー_1" xmlns="http://www.w3.org/2000/svg" xmlns:xlink="http://www.w3.org/1999/xlink" x="0px"
	 y="0px" viewBox="0 0 850.4 850.4" style="enable-background:new 0 0 850.4 850.4;" xml:space="preserve">
<style type="text/css">
	.st0{clip-path:url(#SVGID_2_);fill:#FFFFFF;}
</style>
<g>
	<defs>
		<rect id="SVGID_1_" width="850.4" height="850.4"/>
	</defs>
	<clipPath id="SVGID_2_">
		<use xlink:href="#SVGID_1_"  style="overflow:visible;"/>
	</clipPath>
	<path class="st0" d="M252.3,430.8c-7.8,0-14.6-6.4-14.6-13.9c0-3.1,1.1-7.1,3.4-9.3c-1.6-1-3.9-1.4-6.7-1.4
		c-7.1,0-10.7,5-10.7,10.2c0,6.9,6.4,10,19.4,16.2s19.5,13.1,19.5,24.3c0,23.4-21.8,35.7-53.8,35.7c-23.6,0-40.7-9.8-40.7-24.3
		c0-9.3,6.2-15.6,14.6-15.6c9.4,0,16,5.6,16,14.7c0,4.4-1.4,8.5-4.4,11.4c2,1.2,4.8,1.5,7.8,1.5c8.2,0,14.4-4.1,14.4-10.8
		c0-4.8-3.9-9.1-12.1-13.9c-9.2-5.4-15.8-9.7-19.4-14.1c-3-3.9-4.3-6.2-4.3-13.5c0-17.6,12.6-24.9,24.7-29
		c5.3-1.7,12.1-2.9,22.6-2.9c12.3,0,17.8,0.8,23.1,2.5c12.4,4.2,14.7,12.4,14.7,18.3C265.8,423.8,260.2,430.8,252.3,430.8"/>
	<path class="st0" d="M335.1,454.3c-0.7,2.9-1.4,6.4-1.4,8.5c0,2.9,1.4,4.4,3.7,4.4c5.1,0,10.5-6.4,12.3-13.7l13.1-55h46.7l-14,60.4
		c-0.7,3.1-1.1,5.4-1.1,8.5c0,4.6,2,7.5,6.2,7.5c5.1,0,11-4.6,17.2-13.7c6.2-9.3,9.9-18,11.2-25.7h-2c-9.6,0-17.4-5.8-17.4-18.7
		c0-10.6,7.3-18.3,15.3-18.3c12.3,0,17.9,9.3,17.9,21.8c0,12-5.5,29.3-17.2,46.1c-12.3,17.6-25.4,26.3-46.3,26.3
		c-16.3,0-25.2-8.1-28.8-22.2c-3.9,3.9-7.6,8.1-11.9,11.8c-6.7,5.8-14.4,10.4-29.8,10.4c-13.7,0-23.4-10-23.4-23.7
		c0-5.8,1.8-14.5,5.1-26.1c3.4-11.6,5.2-20.3,5.2-25.9c0-5.4-3.6-7.7-13.5-7.7l2.7-9.3l63.8-1.5L335.1,454.3z"/>
	<path class="st0" d="M538.3,436.4c-8,0-13.1-6.8-13.9-14.7c-9.2,12.5-16.9,47.9-21.8,68.7H457l12.6-52.5c1.2-5.2,1.6-7.9,1.6-16.6
		c0-10-2.7-12-13.1-12l1.2-9.3l52.9-1.5l-1.1,25.7l0.4,0.4c8.2-19.9,16.3-28.4,27.2-28.4c11,0,17.8,7.1,17.8,19.5
		C556.4,427.3,549.5,436.4,538.3,436.4"/>
	<path class="st0" d="M636.9,357.6l-22.4,92.7c-3.7,15.8-4.8,16.2-4.8,20.5c0,2.9,1.2,4.2,3.6,4.2c3.4,0,7.8-6,13-16.6l7.3,5.4
		c-12.1,22.4-22,29-42.1,29c-15.1,0-26.5-8.3-26.5-25.1c0-6.9,1.4-12,2.8-18c15.8-65.2,17-69.3,17-73.7c0-5.2-3.4-7.5-13.9-7.5
		l2-9.3L636.9,357.6z"/>
	<path class="st0" d="M682.4,475c0,9.8-8,17.8-17.8,17.8c-9.8,0-17.8-8-17.8-17.8s8-17.8,17.8-17.8
		C674.5,457.2,682.4,465.1,682.4,475"/>
	<polygon class="st0" points="200.4,375 198,358 198,358 196.2,358 188.4,375 186.1,358 186.1,358 183.9,358 186.8,377.4 
		186.8,377.4 189.1,377.4 196.6,361.2 198.9,377.4 198.9,377.4 201.2,377.4 210.2,358 210.2,358 208.1,358 	"/>
	<path class="st0" d="M216.1,351c-0.8,0-1.4,0.6-1.4,1.4c0,0.8,0.6,1.4,1.4,1.4c0.8,0,1.4-0.7,1.4-1.4
		C217.5,351.6,216.9,351,216.1,351"/>
	<polygon class="st0" points="211.2,377.4 211.2,377.4 213.2,377.4 216.3,358 216.3,358 214.3,358 	"/>
	<path class="st0" d="M235.6,359.6c0,0,0-0.1-0.1-0.1c-0.1-0.1-0.2-0.1-0.2-0.2c-0.4-0.4-0.9-0.8-1.5-1.1c-0.2-0.1-0.3-0.1-0.5-0.2
		c-0.6-0.2-1.3-0.3-2.1-0.3c-0.1,0-0.2-0.1-0.3-0.1c-0.8,0-1.6,0.1-2.4,0.4c0,0,0,0,0,0c-0.7,0.2-1.4,0.5-2,0.9c0,0-0.1,0.1-0.1,0.1
		c-0.6,0.4-1.1,0.8-1.5,1.3c0,0,0,0-0.1,0.1c-0.4,0.5-0.8,1-1.1,1.5c0.2-1.4,0.3-3,0.3-4v0h-1.9v0c0,1.3-0.1,2.7-0.5,5.4l-2.2,14
		l0,0h2l1.8-11.5c0.6-3.8,3.6-6.5,7.3-6.5c1.3,0,2.2,0.4,3,1c0.2,0.1,0.4,0.2,0.5,0.4c0.8,1,1.1,2.6,0.8,4.6l-1.9,11.9l0,0h2
		l1.9-11.6c0-0.1,0-0.2,0-0.3c0.2-1.2,0.2-2.2,0-3.1c0-0.2-0.1-0.3-0.1-0.5C236.4,361,236.1,360.2,235.6,359.6"/>
	<path class="st0" d="M256.6,360.2c-0.1-0.1-0.1-0.2-0.1-0.2c-0.1-0.1-0.2-0.1-0.3-0.2c-0.6-0.6-1.3-1.1-2.1-1.5
		c-0.1-0.1-0.3-0.1-0.5-0.1c-0.8-0.3-1.7-0.5-2.7-0.5c-0.1,0-0.2-0.1-0.3-0.1c-5.8,0-9.9,4.9-9.9,11.7c0,5.2,3.1,8.4,8.2,8.4
		c4.1,0,7.2-2.1,8.3-5.7l0,0h-2l0,0c-1,2.6-3.2,4-6.2,4c-4.1,0-6.2-2.3-6.2-6.6c0-0.5,0-1,0.1-1.5h15.1l0.1-0.6
		c0.4-2.8,0-5.1-1.2-6.8C256.7,360.4,256.7,360.3,256.6,360.2 M243,366.2c0.9-4.3,3.7-6.8,7.5-6.8c0.7,0,1.3,0.1,1.8,0.3
		c0.2,0.1,0.5,0,0.7,0.1c0.5,0.2,0.8,0.5,1.2,0.8c0.2,0.2,0.5,0.3,0.7,0.5c0.4,0.5,0.7,1.2,0.9,1.9c0,0.1,0.1,0.1,0.1,0.2
		c0.2,0.9,0.2,1.9,0.1,3H243z M256.4,360C256.4,360,256.4,360,256.4,360C256.4,360,256.4,360,256.4,360
		C256.4,360,256.4,360,256.4,360"/>
	<path class="st0" d="M286.7,361.2c-0.4-0.7-0.8-1.3-1.4-1.8c-0.2-0.1-0.4-0.2-0.6-0.3c-1.3-0.9-2.8-1.4-4.7-1.4
		c-5.8,0-10,4.7-10,11.2c0,5.4,3.4,8.9,8.8,8.9c2,0,3.6-0.6,5-1.6c0.1-0.1,0.3-0.1,0.5-0.3c0.7-0.6,1.3-1.3,1.8-2
		c0,0,0.1-0.1,0.1-0.1c0.5-0.9,0.9-1.9,1.2-3l0,0h-1.9l0,0c-0.7,3.2-3.2,5.2-6.6,5.2c-4.2,0-6.7-2.7-6.7-7.1c0-5.7,3.2-9.5,7.9-9.5
		c3.4,0,5.5,1.8,5.7,4.9v0h1.9v0c-0.1-1-0.3-2-0.7-2.8C286.8,361.3,286.7,361.3,286.7,361.2"/>
	<path class="st0" d="M306.6,360.2c-0.3-0.3-0.7-0.6-1-0.9c-0.1,0-0.1-0.1-0.2-0.2c-0.4-0.3-0.9-0.6-1.4-0.8c0,0,0,0,0,0
		c-1.1-0.4-2.3-0.7-3.6-0.7c-5.8,0-10.2,4.8-10.2,11.3c0,5.1,3.5,8.7,8.5,8.7c6,0,10.2-4.7,10.2-11.3
		C308.9,363.9,308.1,361.8,306.6,360.2C306.6,360.3,306.6,360.2,306.6,360.2 M305.5,371.9C305.5,372,305.5,372,305.5,371.9
		c-1.4,2.5-3.8,4-6.8,4c-1.8,0-3.2-0.6-4.3-1.6c-0.1-0.1-0.3-0.2-0.4-0.3c-0.5-0.5-0.9-1.2-1.2-2c0-0.1-0.1-0.1-0.1-0.2
		c-0.3-0.9-0.5-1.8-0.5-2.9c0-2.1,0.5-4,1.3-5.5c0,0,0,0,0-0.1c1.4-2.5,3.8-4,6.7-4c1.8,0,3.3,0.6,4.4,1.7c0.1,0.1,0.2,0.1,0.3,0.2
		c0.5,0.5,0.9,1.2,1.2,2c0,0.1,0.1,0.1,0.1,0.2c0.3,0.9,0.5,1.8,0.5,2.9C306.8,368.5,306.4,370.4,305.5,371.9"/>
	<path class="st0" d="M321.8,357.7c-5.8,0-10,4.7-10,11.2c0,5.4,3.4,8.9,8.8,8.9c1.9,0,3.6-0.6,5-1.5c0.2-0.1,0.3-0.2,0.5-0.3
		c0.7-0.5,1.2-1.2,1.7-2c0-0.1,0.1-0.1,0.2-0.2c0.5-0.9,0.9-1.9,1.2-3l0,0h-1.9l0,0c-0.7,3.2-3.2,5.2-6.6,5.2
		c-4.2,0-6.7-2.7-6.7-7.1c0-5.7,3.2-9.5,7.9-9.5c3.4,0,5.5,1.8,5.7,4.9v0h1.9v0C329.1,360.2,326.2,357.7,321.8,357.7"/>
	<polygon class="st0" points="335.8,366.7 338.6,348.7 338.6,348.7 336.6,348.7 332.1,377.4 332,377.4 334.1,377.4 335.7,366.9 
		344.1,377.4 346.4,377.4 338,366.9 348.9,358 348.9,358 346.3,358 	"/>
	<path class="st0" d="M356.4,353.6L356.4,353.6l-2,0l-0.7,4.4h-2.9l-0.3,1.7l0,0h2.9l-2,12.6c-0.2,1.4,0,2.5,0.5,3.4
		c0.1,0.2,0.1,0.3,0.2,0.5c0,0,0,0.1,0.1,0.2c0.3,0.4,0.8,0.6,1.2,0.9c0,0,0,0,0,0c0.6,0.3,1.3,0.4,2.1,0.4c0.9,0,1.8-0.2,2.4-0.5
		l0.3-1.7l0,0l0,0c-0.8,0.3-1.6,0.4-2.4,0.4c-0.9,0-1.6-0.2-2-0.7c0,0,0,0,0,0c-0.5-0.6-0.6-1.5-0.4-2.8l2-12.7h5l0.3-1.7l0,0h-5
		L356.4,353.6z M352.3,376.3C352.3,376.3,352.3,376.3,352.3,376.3c0.1,0.1,0.2,0.1,0.4,0.3C352.5,376.5,352.4,376.4,352.3,376.3"/>
	<path class="st0" d="M376.8,359.5c-0.1-0.1-0.4-0.2-0.5-0.3c-1.1-0.9-2.6-1.5-4.7-1.5c-0.9,0-2.8,0.2-4.6,1.3c0,0,0,0-0.1,0
		c-0.7,0.4-1.3,1-1.8,1.7c0,0,0,0.1-0.1,0.1c-0.5,0.7-0.9,1.5-1.1,2.6l0,0h2l0,0c0.4-1.3,1-2.3,1.8-3c0,0,0.1-0.1,0.1-0.1
		c0.9-0.7,2.1-1,3.6-1c1.8,0,3.1,0.4,3.8,1.3c0.7,0.9,1,2.2,0.7,4l-0.2,1.5h-5c-2.1,0-4.4,0.3-6.2,1.3c0,0,0,0,0,0
		c-0.4,0.2-0.7,0.5-1.1,0.8c0,0,0,0,0,0c-0.9,0.9-1.5,2.2-1.5,3.9c0,1.5,0.5,2.6,1.4,3.5c0.1,0.1,0.1,0.2,0.3,0.3
		c0.5,0.4,1.1,0.8,1.8,1c0.1,0,0.1,0.1,0.2,0.1c0.8,0.3,1.7,0.4,2.7,0.4c2.6,0,5-1.3,6.3-3.4c-0.1,1-0.1,2.1-0.1,3.1v0h1.9v0
		c-0.1-1.5,0-3.2,0.4-5.6l1.1-7c0.4-2.3,0-4-1.1-5.3C376.9,359.6,376.9,359.6,376.8,359.5 M375,371c-0.5,3-3.1,5.1-6.5,5.1
		c-2.9,0-4.6-1.4-4.6-3.8c0-0.4,0.1-0.6,0.2-1c0.1-0.4,0.1-0.8,0.3-1.1c0.2-0.4,0.5-0.6,0.8-0.9c0.2-0.2,0.3-0.4,0.5-0.5
		c0.5-0.3,1.1-0.5,1.9-0.7c0.1,0,0.1,0,0.2-0.1c0.9-0.2,1.9-0.3,3.1-0.3h4.7L375,371z M376.9,359.6
		C376.9,359.6,376.9,359.6,376.9,359.6c0.2,0.2,0.2,0.4,0.3,0.6C377.1,360,377,359.8,376.9,359.6"/>
	<polygon class="st0" points="382,377.4 382,377.4 384,377.4 387.1,358 387.1,358 385,358 	"/>
	<path class="st0" d="M386.9,351c-0.8,0-1.4,0.6-1.4,1.4c0,0.8,0.6,1.4,1.4,1.4c0.8,0,1.4-0.7,1.4-1.4
		C388.3,351.6,387.7,351,386.9,351"/>
	<polygon class="st0" points="390.2,377.4 390.1,377.4 392.2,377.4 396.7,348.7 396.7,348.7 394.7,348.7 	"/>
	<path class="st0" d="M418.7,371.8l-4.4-6.5c3-1.2,5.7-2.8,5.7-5.9c0-2.5-1.8-4.2-4.4-4.2c-3,0-5.2,2.2-5.2,5.2
		c0,1.4,0.5,2.7,1.6,4.5c-3.2,1.3-6.4,3.1-6.4,7.2c0,4.1,3.2,5.6,6.3,5.6c0.7,0,1.3-0.1,2-0.3c0,0,0,0,0.1,0
		c0.6-0.2,1.1-0.4,1.6-0.7c0.1,0,0.1-0.1,0.2-0.1c1.2-0.7,2.2-1.6,2.8-2.2l2.1,3.1l2,0l-3-4.4l4.6-6.8l0,0l-1.7,0L418.7,371.8z
		 M415.6,356.5c1.7,0,2.8,1.2,2.8,2.9c0,2.8-2.6,3.9-4.8,4.8c-1.1-1.7-1.6-2.8-1.6-4C412.1,358,413.5,356.5,415.6,356.5
		 M411.9,376.2c-2.8,0-4.5-1.7-4.5-4.2c0-3.6,2.8-5,5.3-6.1l5,7.2C416,375.1,413.9,376.2,411.9,376.2"/>
	<polygon class="st0" points="437.6,366.7 440.5,348.7 440.5,348.7 438.5,348.7 433.9,377.4 433.9,377.4 435.9,377.4 437.6,366.9 
		445.9,377.4 448.3,377.4 439.9,366.9 450.7,358 450.8,358 448.2,358 	"/>
	<polygon class="st0" points="452,377.4 452,377.4 454,377.4 457.1,358 457.1,358 455.1,358 	"/>
	<path class="st0" d="M456.9,351c-0.8,0-1.4,0.6-1.4,1.4c0,0.8,0.6,1.4,1.4,1.4c0.8,0,1.4-0.7,1.4-1.4
		C458.3,351.6,457.7,351,456.9,351"/>
	<path class="st0" d="M466.5,353.6L466.5,353.6l-2,0l-0.7,4.4h-2.9l-0.3,1.7l0,0h2.9l-2,12.6c-0.2,1.4,0,2.5,0.5,3.4
		c0.1,0.2,0.1,0.4,0.2,0.5c0,0,0,0.1,0.1,0.2c0.3,0.4,0.8,0.6,1.2,0.9c0,0,0,0,0.1,0c0.6,0.3,1.3,0.4,2.1,0.4c0.9,0,1.8-0.2,2.4-0.5
		l0.3-1.7l0,0l0,0c-0.8,0.3-1.6,0.4-2.4,0.4c-0.9,0-1.6-0.2-2-0.7c-0.5-0.6-0.6-1.5-0.4-2.8l2-12.7h5l0.3-1.7l0,0h-5L466.5,353.6z
		 M462.4,376.3C462.3,376.3,462.3,376.3,462.4,376.3c0.1,0.1,0.2,0.1,0.4,0.2C462.6,376.5,462.5,376.4,462.4,376.3"/>
	<path class="st0" d="M482.1,357.7c-5.8,0-10,4.7-10,11.2c0,5.4,3.4,8.9,8.8,8.9c1.9,0,3.6-0.6,5-1.5c0.2-0.1,0.3-0.2,0.5-0.3
		c0.7-0.6,1.3-1.2,1.8-2c0-0.1,0.1-0.1,0.1-0.1c0.5-0.9,0.9-1.9,1.2-3l0,0h-1.9l0,0c-0.7,3.2-3.2,5.2-6.6,5.2
		c-4.2,0-6.7-2.7-6.7-7.1c0-5.7,3.2-9.5,7.9-9.5c3.4,0,5.5,1.8,5.7,4.9v0h1.9v0C489.4,360.2,486.5,357.7,482.1,357.7"/>
	<path class="st0" d="M508.6,359.6c0,0,0-0.1-0.1-0.1c-0.1-0.1-0.2-0.1-0.2-0.2c-0.4-0.4-0.9-0.8-1.5-1.1c-0.2-0.1-0.3-0.1-0.5-0.2
		c-0.6-0.2-1.3-0.3-2.1-0.4c-0.1,0-0.2,0-0.3,0c-0.8,0-1.6,0.1-2.3,0.4c-0.1,0-0.1,0.1-0.2,0.1c-0.6,0.2-1.2,0.5-1.8,0.9
		c-0.1,0.1-0.1,0.1-0.2,0.2c-0.5,0.3-1,0.7-1.4,1.2c-0.1,0.1-0.1,0.1-0.2,0.2c-0.3,0.4-0.7,0.8-1,1.2l2.1-13.1l0,0h-2l-4.5,28.7l0,0
		h2l1.8-11.5c0.6-3.8,3.6-6.5,7.3-6.5c1.3,0,2.3,0.4,3,1c0.1,0.1,0.3,0.2,0.5,0.4c0.8,1,1.1,2.6,0.8,4.6l-1.9,11.9l0,0h2l1.9-11.6
		c0-0.1,0-0.2,0-0.4c0.2-1.1,0.2-2.1,0-3c0-0.2-0.1-0.4-0.1-0.5C509.4,361,509.1,360.2,508.6,359.6"/>
	<path class="st0" d="M529.6,360.2c-0.1-0.1-0.1-0.2-0.2-0.2c-0.1-0.1-0.2-0.1-0.3-0.2c-0.6-0.6-1.2-1.1-2.1-1.5
		c-0.2-0.1-0.3-0.1-0.5-0.1c-0.8-0.3-1.7-0.4-2.7-0.5c-0.1,0-0.2-0.1-0.3-0.1c-5.7,0-9.9,4.9-9.9,11.7c0,5.2,3.1,8.4,8.2,8.4
		c4.1,0,7.2-2.1,8.3-5.7l0,0h-2l0,0c-1,2.6-3.2,4-6.2,4c-4.1,0-6.2-2.3-6.2-6.6c0-0.5,0-1,0.1-1.5h15.1l0.1-0.6
		c0.4-2.8,0-5.2-1.2-6.9C529.7,360.3,529.7,360.3,529.6,360.2 M516.1,366.2c0.9-4.3,3.7-6.8,7.5-6.8c0.7,0,1.3,0.2,1.9,0.3
		c0.2,0.1,0.5,0,0.7,0.1c0.5,0.2,0.8,0.5,1.2,0.8c0.2,0.2,0.5,0.3,0.7,0.5c0.4,0.5,0.7,1.2,0.9,1.9c0,0.1,0.1,0.2,0.1,0.3
		c0.2,0.9,0.2,1.9,0.1,3H516.1z M529.4,360C529.4,360,529.4,360,529.4,360C529.4,360,529.4,360,529.4,360
		C529.4,360,529.4,360,529.4,360"/>
	<path class="st0" d="M551.2,361.9c-0.2-0.9-0.5-1.7-1-2.3c0,0,0-0.1-0.1-0.1c-0.1-0.1-0.2-0.1-0.2-0.2c-0.4-0.4-0.9-0.8-1.5-1.1
		c-0.2-0.1-0.3-0.1-0.5-0.2c-0.6-0.2-1.3-0.3-2.1-0.3c-0.1,0-0.2-0.1-0.3-0.1c-0.8,0-1.6,0.1-2.4,0.4c0,0,0,0,0,0
		c-0.7,0.2-1.3,0.5-2,0.9c0,0-0.1,0.1-0.1,0.1c-0.5,0.4-1.1,0.8-1.5,1.3c0,0,0,0.1-0.1,0.1c-0.4,0.5-0.8,0.9-1.1,1.5
		c0.2-1.4,0.3-3,0.3-4v0h-1.9v0c0,1.3-0.1,2.7-0.5,5.4l-2.2,14l0,0h2l1.8-11.5c0.6-3.8,3.6-6.5,7.3-6.5c1.3,0,2.2,0.4,3,1
		c0.2,0.1,0.4,0.2,0.5,0.4c0.8,1,1.1,2.6,0.8,4.6l-1.9,11.9l0,0h2l1.9-11.6c0-0.1,0-0.2,0-0.3c0.2-1.2,0.2-2.2,0-3.1
		C551.2,362.2,551.2,362.1,551.2,361.9"/>
</g>
</svg>
